<?xml version="1.0" encoding="UTF-8"?> <svg xmlns="http://www.w3.org/2000/svg" width="75" height="74" viewBox="0 0 75 74" fill="none"><rect x="0.5" width="74" height="74" rx="37" fill="#EBF9FF"></rect><path d="M15.625 50.9167H29.5417C30.5868 50.9167 31.6216 51.1225 32.5872 51.5225C33.5527 51.9224 34.4301 52.5086 35.1691 53.2476C35.9081 53.9866 36.4943 54.8639 36.8942 55.8295C37.2942 56.795 37.5 57.8299 37.5 58.875H15.625V50.9167Z" stroke="black" stroke-width="1.91" stroke-miterlimit="10"></path><path d="M45.4583 50.9167H59.375V58.875H37.5C37.5 56.7643 38.3385 54.7401 39.8309 53.2476C41.3234 51.7552 43.3477 50.9167 45.4583 50.9167Z" stroke="black" stroke-width="1.91" stroke-miterlimit="10"></path><path d="M15.625 25.0625H29.5417C30.5868 25.0625 31.6216 25.2683 32.5872 25.6683C33.5527 26.0682 34.4301 26.6544 35.1691 27.3934C35.9081 28.1324 36.4943 29.0098 36.8942 29.9753C37.2942 30.9409 37.5 31.9757 37.5 33.0208V58.875H15.625V25.0625Z" stroke="black" stroke-width="1.91" stroke-miterlimit="10"></path><path d="M53.4167 25.0625H59.375V58.875H37.5V33.0208C37.5 30.9102 38.3385 28.8859 39.8309 27.3934C41.3234 25.901 43.3477 25.0625 45.4583 25.0625" stroke="black" stroke-width="1.91" stroke-miterlimit="10"></path><path d="M53.4174 39.0833L49.4382 43.0625L45.459 39.0833V19.1042C45.4563 18.5808 45.5573 18.0622 45.7563 17.5781C45.9553 17.0941 46.2483 16.6544 46.6184 16.2843C46.9884 15.9143 47.4282 15.6213 47.9122 15.4223C48.3962 15.2233 48.9149 15.1222 49.4382 15.125C50.4935 15.125 51.5057 15.5442 52.2519 16.2905C52.9981 17.0367 53.4174 18.0488 53.4174 19.1042V39.0833Z" stroke="black" stroke-width="1.91" stroke-miterlimit="10"></path></svg> 