<?xml version="1.0" encoding="UTF-8"?> <svg xmlns="http://www.w3.org/2000/svg" width="75" height="74" viewBox="0 0 75 74" fill="none"><rect x="0.25" width="74" height="74" rx="37" fill="#EBF9FF"></rect><path d="M37.2503 29.1458C38.3319 29.1458 39.2087 28.2691 39.2087 27.1875C39.2087 26.1059 38.3319 25.2292 37.2503 25.2292C36.1688 25.2292 35.292 26.1059 35.292 27.1875C35.292 28.2691 36.1688 29.1458 37.2503 29.1458Z" stroke="black" stroke-width="1.88" stroke-miterlimit="10"></path><path d="M30.3337 34.1042C28.5207 32.2711 27.5039 29.7969 27.5039 27.2187C27.5039 24.6406 28.5207 22.1664 30.3337 20.3333" stroke="black" stroke-width="1.88" stroke-miterlimit="10"></path><path d="M44.167 20.3333C45.999 22.169 47.0278 24.6566 47.0278 27.25C47.0278 29.8434 45.999 32.3309 44.167 34.1667" stroke="black" stroke-width="1.88" stroke-miterlimit="10"></path><path d="M24.7498 39.6458C21.4484 36.3444 19.5938 31.8668 19.5938 27.1979C19.5938 22.5291 21.4484 18.0514 24.7498 14.75" stroke="black" stroke-width="1.88" stroke-miterlimit="10"></path><path d="M49.75 14.75C51.4003 16.3866 52.7102 18.3337 53.6042 20.4792C54.4981 22.6246 54.9583 24.9258 54.9583 27.25C54.9583 29.5742 54.4981 31.8754 53.6042 34.0208C52.7102 36.1663 51.4003 38.1134 49.75 39.75" stroke="black" stroke-width="1.88" stroke-miterlimit="10"></path><path d="M47.0413 58.5L37.7705 29.0833" stroke="black" stroke-width="1.88" stroke-miterlimit="10"></path><path d="M36.7288 29.0833L27.458 58.5" stroke="black" stroke-width="1.88" stroke-miterlimit="10"></path><path d="M43.125 46.75H31.375" stroke="black" stroke-width="1.88" stroke-miterlimit="10"></path><path d="M23.5625 58.5H50.9375" stroke="black" stroke-width="1.88" stroke-miterlimit="10"></path></svg> 